<?xml version="1.0" encoding="utf-8"?>
<!-- Generator: Adobe Illustrator 14.0.0, SVG Export Plug-In . SVG Version: 6.00 Build 43363)  -->
<!DOCTYPE svg PUBLIC "-//W3C//DTD SVG 1.1//EN" "http://www.w3.org/Graphics/SVG/1.1/DTD/svg11.dtd">
<svg version="1.1" id="Ebene_1" xmlns="http://www.w3.org/2000/svg" xmlns:xlink="http://www.w3.org/1999/xlink" x="0px" y="0px"
	 width="595.28px" height="841.89px" viewBox="0 0 595.28 841.89" enable-background="new 0 0 595.28 841.89" xml:space="preserve">
<g>
	<defs>
		<rect id="SVGID_1_" x="223" y="356.368" width="148.354" height="129.522"/>
	</defs>
	<clipPath id="SVGID_2_">
		<use xlink:href="#SVGID_1_"  overflow="visible"/>
	</clipPath>
	<path clip-path="url(#SVGID_2_)" fill="#58585A" d="M371.354,481.59v-0.7c0-0.2-0.141-0.28-0.42-0.28h-1.121
		c-0.799,0-1.08-0.16-1.08-1.26v-6.979h2.16c0.221,0,0.4-0.181,0.4-0.4v-0.68c0-0.221-0.18-0.4-0.4-0.4h-2.16v-2.18
		c0-0.2-0.139-0.34-0.299-0.34h-0.061l-1.04,0.159c-0.22,0.04-0.36,0.2-0.36,0.4v1.96h-1.939c-0.221,0-0.381,0.14-0.381,0.36v0.54
		c0,0.22,0.16,0.34,0.381,0.359l1.939,0.221v6.979c0,2.2,0.881,2.68,2.721,2.68c0.38,0,0.9-0.04,1.3-0.1
		C371.254,481.89,371.354,481.77,371.354,481.59 M363.496,471.93v-0.82c0-0.239-0.14-0.359-0.42-0.359c-0.9,0-1.82,0.26-2.82,0.96
		v-0.42c0-0.221-0.159-0.4-0.38-0.4h-0.939c-0.221,0-0.381,0.18-0.381,0.4v10.199c0,0.221,0.18,0.4,0.381,0.4h0.979
		c0.22,0,0.399-0.2,0.399-0.4v-8.38c1-0.6,1.84-0.84,2.761-0.84C363.356,472.27,363.496,472.15,363.496,471.93 M354.485,479.791
		c-0.959,0.52-1.779,0.8-2.699,0.8c-1.16,0-1.84-0.38-1.84-1.82v-0.24c0-1.42,0.64-1.96,3.06-1.96h1.479V479.791z M356.246,481.49
		v-6.979c0-2.36-1.12-3.76-3.899-3.76c-1.361,0-2.281,0.12-3.101,0.26c-0.28,0.04-0.42,0.16-0.42,0.38v0.7
		c0,0.26,0.18,0.319,0.36,0.319h0.1c0.8-0.079,1.76-0.159,3.061-0.159c1.559,0,2.139,0.58,2.139,2.26v0.8h-1.479
		c-3.56,0-4.819,1.08-4.819,3.24v0.24c0,2.5,1.56,3.239,3.26,3.239c1.119,0,2.119-0.42,3.08-0.979v0.439c0,0.221,0.18,0.4,0.399,0.4
		h0.921C356.065,481.89,356.246,481.71,356.246,481.49 M345.046,482.791c0,1.1-0.52,1.739-2.8,1.739c-2.22,0-2.88-0.699-2.88-1.819
		v-0.181c0-1.04,0.4-1.54,0.98-2.04l2.26,0.58c1.799,0.46,2.439,0.78,2.439,1.561V482.791z M344.886,474.59
		c0,1.2-0.539,2.04-2.699,2.04c-2.301,0-2.701-1.16-2.701-2.04v-0.16c0-1.12,0.461-2.14,2.701-2.14c2.16,0,2.699,0.939,2.699,2.14
		V474.59z M347.026,471.85v-0.52c0-0.24-0.221-0.44-0.461-0.44h-4.379c-3.44,0-4.44,1.76-4.44,3.54v0.16c0,1.02,0.3,1.74,0.92,2.319
		c-0.56,0.32-0.819,0.9-0.819,1.44v0.021c0,0.619,0.279,1.279,0.92,1.56l0.139,0.06c-0.659,0.5-1.26,1.42-1.26,2.54v0.181
		c0,1.96,1.44,3.18,4.601,3.18c3.28,0,4.56-1.18,4.56-3.1v-0.16c0-1.88-1.88-2.44-3.84-2.94l-2.98-0.76
		c-0.459-0.12-0.619-0.3-0.619-0.64c0-0.301,0.16-0.521,0.5-0.681c0.58,0.24,1.26,0.4,2.32,0.4c3.08,0,4.439-1.22,4.439-3.42v-0.16
		c0-1.08-0.32-1.68-0.68-2.06l0.72-0.141C346.886,472.19,347.026,472.11,347.026,471.85 M336.24,481.59v-0.7
		c0-0.2-0.14-0.28-0.421-0.28H334.7c-0.801,0-1.08-0.16-1.08-1.26v-6.979h2.16c0.22,0,0.4-0.181,0.4-0.4v-0.68
		c0-0.221-0.181-0.4-0.4-0.4h-2.16v-2.18c0-0.2-0.141-0.34-0.301-0.34h-0.06l-1.04,0.159c-0.22,0.04-0.359,0.2-0.359,0.4v1.96h-1.94
		c-0.22,0-0.38,0.14-0.38,0.36v0.54c0,0.22,0.16,0.34,0.38,0.359l1.94,0.221v6.979c0,2.2,0.88,2.68,2.72,2.68
		c0.38,0,0.899-0.04,1.3-0.1C336.14,481.89,336.24,481.77,336.24,481.59 M328.433,481.59v-0.7c0-0.2-0.141-0.28-0.42-0.28h-1.121
		c-0.8,0-1.08-0.16-1.08-1.26v-6.979h2.16c0.221,0,0.4-0.181,0.4-0.4v-0.68c0-0.221-0.18-0.4-0.4-0.4h-2.16v-2.18
		c0-0.2-0.14-0.34-0.299-0.34h-0.061l-1.04,0.159c-0.22,0.04-0.36,0.2-0.36,0.4v1.96h-1.939c-0.221,0-0.381,0.14-0.381,0.36v0.54
		c0,0.22,0.16,0.34,0.381,0.359l1.939,0.221v6.979c0,2.2,0.881,2.68,2.721,2.68c0.379,0,0.899-0.04,1.299-0.1
		C328.332,481.89,328.433,481.77,328.433,481.59 M320.158,481.49v-10.199c0-0.221-0.181-0.4-0.38-0.4h-0.98c-0.22,0-0.4,0.2-0.4,0.4
		v8.439c-0.92,0.46-1.859,0.78-2.699,0.78c-1.52,0-2.2-0.62-2.2-2.64v-6.58c0-0.221-0.181-0.4-0.399-0.4h-0.961
		c-0.22,0-0.4,0.18-0.4,0.4v6.58c0,2.659,1.08,4.159,3.48,4.159c1.18,0,2.08-0.3,3.18-0.92v0.38c0,0.221,0.16,0.4,0.381,0.4h1
		C319.998,481.89,320.158,481.71,320.158,481.49 M310.205,481.59v-0.7c0-0.2-0.14-0.28-0.42-0.28h-1.12c-0.8,0-1.08-0.16-1.08-1.26
		v-6.979h2.16c0.22,0,0.4-0.181,0.4-0.4v-0.68c0-0.221-0.181-0.4-0.4-0.4h-2.16v-2.18c0-0.2-0.141-0.34-0.3-0.34h-0.06l-1.041,0.159
		c-0.22,0.04-0.359,0.2-0.359,0.4v1.96h-1.94c-0.22,0-0.38,0.14-0.38,0.36v0.54c0,0.22,0.16,0.34,0.38,0.359l1.94,0.221v6.979
		c0,2.2,0.88,2.68,2.72,2.68c0.38,0,0.899-0.04,1.3-0.1C310.104,481.89,310.205,481.77,310.205,481.59 M302.222,479.13
		c0-1.181-0.541-2.04-2.201-3.021l-1.979-1.18c-0.92-0.54-1.38-0.92-1.38-1.521c0-1.02,0.74-1.159,1.859-1.159
		c1.121,0,2.4,0.1,3.101,0.159h0.06c0.2,0,0.34-0.1,0.34-0.34v-0.66c0-0.22-0.119-0.359-0.379-0.399c-0.94-0.16-2-0.26-3.121-0.26
		c-2.06,0-3.62,0.58-3.62,2.659c0,1.261,0.82,2.12,2.04,2.86l2.02,1.2c1.14,0.68,1.5,1.06,1.5,1.66c0,1.08-0.681,1.42-1.979,1.42
		c-0.72,0-2.181-0.101-3.141-0.22h-0.08c-0.2,0-0.36,0.119-0.36,0.3v0.7c0,0.22,0.16,0.34,0.42,0.399c0.98,0.24,2.42,0.3,3.161,0.3
		C300.722,482.03,302.222,481.17,302.222,479.13 M288.861,481.63c0-0.061-0.02-0.141-0.06-0.181l-4.44-5.359l4.4-4.76
		c0.06-0.061,0.1-0.141,0.1-0.221c0-0.12-0.1-0.22-0.3-0.22h-1.4c-0.2,0-0.28,0.04-0.4,0.18l-4,4.5v-8.319c0-0.221-0.18-0.4-0.4-0.4
		h-0.96c-0.22,0-0.4,0.18-0.4,0.4v14.239c0,0.221,0.18,0.4,0.4,0.4h0.96c0.22,0,0.4-0.18,0.4-0.4v-4.779l3.98,4.92
		c0.16,0.2,0.24,0.26,0.46,0.26h1.44C288.781,481.89,288.861,481.77,288.861,481.63 M278.701,481.49v-6.58
		c0-2.659-1.08-4.159-3.48-4.159c-1.18,0-2.08,0.3-3.18,0.92v-0.38c0-0.221-0.16-0.4-0.38-0.4h-1c-0.22,0-0.38,0.18-0.38,0.4v10.199
		c0,0.221,0.18,0.4,0.38,0.4h0.98c0.22,0,0.4-0.2,0.4-0.4v-8.439c0.92-0.46,1.86-0.78,2.7-0.78c1.52,0,2.2,0.62,2.2,2.64v6.58
		c0,0.221,0.18,0.4,0.4,0.4h0.96C278.521,481.89,278.701,481.71,278.701,481.49 M267.955,481.49v-10.199c0-0.221-0.18-0.4-0.38-0.4
		h-0.98c-0.22,0-0.4,0.2-0.4,0.4v8.439c-0.92,0.46-1.86,0.78-2.7,0.78c-1.52,0-2.2-0.62-2.2-2.64v-6.58c0-0.221-0.18-0.4-0.4-0.4
		h-0.96c-0.22,0-0.4,0.18-0.4,0.4v6.58c0,2.659,1.08,4.159,3.48,4.159c1.18,0,2.08-0.3,3.18-0.92v0.38c0,0.221,0.16,0.4,0.38,0.4h1
		C267.795,481.89,267.955,481.71,267.955,481.49 M258.002,467.77v-0.66c0-0.18-0.16-0.26-0.38-0.319
		c-0.26-0.061-0.58-0.12-1.12-0.12c-1.76,0-2.8,0.64-2.8,2.779v1.44h-1.94c-0.22,0-0.38,0.16-0.38,0.36v0.54
		c0,0.199,0.16,0.34,0.38,0.359l1.94,0.221v9.119c0,0.2,0.18,0.4,0.4,0.4h0.98c0.2,0,0.38-0.2,0.38-0.4v-9.119h2.1
		c0.22,0,0.38-0.141,0.38-0.341v-0.779c0-0.2-0.16-0.36-0.38-0.36h-2.1v-1.44c0-1.1,0.28-1.38,1.22-1.38h0.96
		C257.862,468.07,258.002,467.99,258.002,467.77 M249.71,481.49v-10.199c0-0.221-0.18-0.4-0.4-0.4h-0.96c-0.22,0-0.4,0.18-0.4,0.4
		v10.199c0,0.221,0.18,0.4,0.4,0.4h0.96C249.53,481.89,249.71,481.71,249.71,481.49 M249.75,468.73v-1.6c0-0.221-0.18-0.4-0.4-0.4
		h-1.02c-0.22,0-0.4,0.18-0.4,0.4v1.6c0,0.22,0.18,0.4,0.4,0.4h1.02C249.57,469.13,249.75,468.95,249.75,468.73 M244.144,475.61
		h-5.3v-0.18c0-2.16,0.96-3.14,2.68-3.14c1.76,0,2.62,0.88,2.62,3.14V475.61z M245.924,476.51v-1.08c0-2.84-1.48-4.68-4.4-4.68
		c-2.86,0-4.44,1.819-4.44,4.68v1.8c0,3.72,2.24,4.8,4.54,4.8c1.34,0,2.44-0.12,3.58-0.34c0.32-0.06,0.4-0.2,0.4-0.46v-0.68
		c0-0.2-0.16-0.28-0.32-0.28h-0.1c-0.92,0.14-2.4,0.22-3.56,0.22c-1.84,0-2.78-0.88-2.78-3.26v-0.28h6.7
		C245.784,476.95,245.924,476.77,245.924,476.51 M236.094,471.93v-0.82c0-0.239-0.14-0.359-0.42-0.359c-0.9,0-1.82,0.26-2.82,0.96
		v-0.42c0-0.221-0.16-0.4-0.38-0.4h-0.94c-0.22,0-0.38,0.18-0.38,0.4v10.199c0,0.221,0.18,0.4,0.38,0.4h0.98c0.22,0,0.4-0.2,0.4-0.4
		v-8.38c1-0.6,1.84-0.84,2.76-0.84C235.954,472.27,236.094,472.15,236.094,471.93 M229.62,467.77v-0.66c0-0.18-0.16-0.26-0.38-0.319
		c-0.26-0.061-0.58-0.12-1.12-0.12c-1.76,0-2.8,0.64-2.8,2.779v1.44h-1.94c-0.22,0-0.38,0.16-0.38,0.36v0.54
		c0,0.199,0.16,0.34,0.38,0.359l1.94,0.221v9.119c0,0.2,0.18,0.4,0.4,0.4h0.98c0.2,0,0.38-0.2,0.38-0.4v-9.119h2.1
		c0.22,0,0.38-0.141,0.38-0.341v-0.779c0-0.2-0.16-0.36-0.38-0.36h-2.1v-1.44c0-1.1,0.28-1.38,1.22-1.38h0.96
		C229.48,468.07,229.62,467.99,229.62,467.77"/>
	
		<ellipse clip-path="url(#SVGID_2_)" fill="none" stroke="#58585A" stroke-width="1.145" cx="262.2" cy="422.347" rx="32.508" ry="33.143"/>
</g>
<g>
	<defs>
		<path id="SVGID_3_" d="M284.998,405.634c0,19.712,15.711,35.691,35.092,35.691c19.38,0,35.091-15.979,35.091-35.691
			c0-19.711-15.711-35.691-35.091-35.691C300.709,369.943,284.998,385.923,284.998,405.634"/>
	</defs>
	<clipPath id="SVGID_4_">
		<use xlink:href="#SVGID_3_"  overflow="visible"/>
	</clipPath>
	<path clip-path="url(#SVGID_4_)" fill="#F8B334" d="M316.036,407.948c0.331,1.873,0.578,3.215,0.578,3.215s2.082,0.542,3.688,0.98
		c0.793,0.217,1.514,0.394,1.613,1.292c0.166,25.345-1.094,56.958-1.469,78.957h12.396c-0.523-25.113-1.783-78.105-1.798-79.178
		c-0.015-1.071,0.915-1.233,1.737-1.363c1.386-0.22,3.824-0.688,3.824-0.688s0.224-1.342,0.522-3.215H316.036z M315.481,404.752
		h22.146c0.148-0.972,0.296-1.966,0.434-2.917h-23.065C315.149,402.786,315.315,403.781,315.481,404.752 M315.002,392.529h23.09
		c-0.347-1.752-0.726-3.284-0.726-3.284l-7.916-2.046l-2.074-37.732h-1.531l-2.074,37.732l-7.914,2.046
		C315.856,389.245,315.414,390.789,315.002,392.529 M338.485,398.641c0.104-0.893,0.17-1.604,0.17-1.992
		c0-0.269-0.02-0.582-0.053-0.925H314.38c-0.043,0.344-0.068,0.651-0.068,0.905c0,0.366,0.078,1.087,0.203,2.012H338.485z"/>
</g>
<g>
	<defs>
		<rect id="SVGID_5_" x="223" y="356.368" width="148.354" height="129.522"/>
	</defs>
	<clipPath id="SVGID_6_">
		<use xlink:href="#SVGID_5_"  overflow="visible"/>
	</clipPath>
	
		<ellipse clip-path="url(#SVGID_6_)" fill="none" stroke="#58585A" stroke-width="1.062" cx="320.09" cy="405.634" rx="35.091" ry="35.691"/>
	
		<ellipse clip-path="url(#SVGID_6_)" fill="none" stroke="#58585A" stroke-width="5.812" cx="319.939" cy="405.634" rx="45.911" ry="46.36"/>
</g>
<polygon fill="#F8B334" points="254.358,406.381 247.111,406.381 252.909,411.877 241.314,411.877 241.314,417.373 252.909,417.373 
	247.111,422.867 254.358,422.867 263.054,414.625 "/>
</svg>
